<svg width="80" height="80" viewBox="0 0 80 80" fill="none" xmlns="http://www.w3.org/2000/svg">
<g clip-path="url(#clip0_1_2163)">
<path d="M78.8036 49.6732C73.4593 71.1132 51.7371 84.1463 30.3277 78.8016C8.88707 73.4573 -4.14605 51.736 1.19864 30.327C6.54301 8.88696 28.2336 -4.14617 49.6743 1.19852C71.0836 6.51164 84.1483 28.2329 78.8036 49.6732Z" fill="url(#paint0_linear_1_2163)"/>
<path d="M59.0449 35.0159C59.8262 29.7034 55.7949 26.8284 50.2324 24.9222L52.0449 17.7034L47.6699 16.6097L45.9199 23.6409C44.7637 23.3597 43.5762 23.0784 42.3887 22.8284L44.1387 15.7659L39.7637 14.6722L37.9824 21.8597C37.0137 21.6409 36.0762 21.4222 35.1699 21.2034V21.1722L29.1074 19.6722L27.9512 24.3597C27.9512 24.3597 31.2012 25.1097 31.1387 25.1409C32.9199 25.5784 33.2324 26.7659 33.1699 27.7034L31.1074 35.9222C31.2324 35.9534 31.3887 35.9847 31.5762 36.0784C31.4199 36.0472 31.2637 36.0159 31.1074 35.9534L28.2324 47.4534C28.0137 47.9847 27.4512 48.7972 26.2324 48.4847C26.2637 48.5472 23.0449 47.7034 23.0449 47.7034L20.8574 52.7347L26.5762 54.1722C27.6387 54.4534 28.6699 54.7034 29.7012 54.9847L27.8887 62.2659L32.2637 63.3597L34.0762 56.1409C35.2637 56.4534 36.4512 56.7659 37.5762 57.0472L35.7949 64.2347L40.1699 65.3284L41.9824 58.0472C49.4824 59.4534 55.1074 58.8909 57.4512 52.1097C59.3574 46.6722 57.3574 43.5159 53.4199 41.4534C56.3262 40.7972 58.4824 38.8909 59.0449 35.0159ZM49.0137 49.0784C47.6699 54.5159 38.4824 51.5784 35.5137 50.8284L37.9199 41.1722C40.8887 41.9222 50.4512 43.3909 49.0137 49.0784ZM50.3887 34.9222C49.1387 39.8909 41.5137 37.3597 39.0449 36.7347L41.2324 27.9847C43.7012 28.6097 51.6699 29.7659 50.3887 34.9222Z" fill="white"/>
</g>
<defs>
<linearGradient id="paint0_linear_1_2163" x1="39.9786" y1="-0.0190779" x2="39.9786" y2="79.992" gradientUnits="userSpaceOnUse">
<stop stop-color="#F9AA4B"/>
<stop offset="1" stop-color="#F7931A"/>
</linearGradient>
<clipPath id="clip0_1_2163">
<rect width="80" height="80" fill="white"/>
</clipPath>
</defs>
</svg>
